<?xml version="1.0" encoding="UTF-8" standalone="no"?>
<!-- Created with Inkscape (http://www.inkscape.org/) -->

<svg
   width="1500"
   height="500"
   viewBox="0 0 396.87498 132.29167"
   version="1.1"
   id="svg1"
   inkscape:version="1.3 (0e150ed6c4, 2023-07-21)"
   sodipodi:docname="tGemLogoPath.svg"
   inkscape:export-filename="renders/tGem.png"
   inkscape:export-xdpi="96"
   inkscape:export-ydpi="96"
   xml:space="preserve"
   xmlns:inkscape="http://www.inkscape.org/namespaces/inkscape"
   xmlns:sodipodi="http://sodipodi.sourceforge.net/DTD/sodipodi-0.dtd"
   xmlns="http://www.w3.org/2000/svg"
   xmlns:svg="http://www.w3.org/2000/svg"><sodipodi:namedview
     id="namedview1"
     pagecolor="#c9c9c9"
     bordercolor="#666666"
     borderopacity="1.0"
     inkscape:showpageshadow="2"
     inkscape:pageopacity="0.0"
     inkscape:pagecheckerboard="0"
     inkscape:deskcolor="#d1d1d1"
     inkscape:document-units="mm"
     inkscape:zoom="0.38751843"
     inkscape:cx="989.63035"
     inkscape:cy="316.114"
     inkscape:window-width="1800"
     inkscape:window-height="1153"
     inkscape:window-x="0"
     inkscape:window-y="0"
     inkscape:window-maximized="1"
     inkscape:current-layer="layer2"
     showgrid="false" /><defs
     id="defs1" /><g
     inkscape:groupmode="layer"
     id="layer2"
     inkscape:label="tail"><path
       style="font-weight:bold;font-size:88.5758px;line-height:1.25;font-family:Ubuntu;-inkscape-font-specification:'Ubuntu Bold';fill:#81e0ff;stroke:#ffffff;stroke-width:3.96875;stroke-linecap:round;stroke-linejoin:round"
       d="m 142.84008,39.890387 13.1978,-2.125819 v 13.729249 h 15.85507 v 10.983398 h -15.85507 v 16.386523 q 0,4.163063 1.41721,6.643185 1.50579,2.480122 5.93458,2.480122 2.12582,0 4.34021,-0.354303 2.30297,-0.442879 4.16307,-1.151485 l 1.86009,10.274792 q -2.39155,0.974334 -5.31455,1.68294 -2.923,0.708607 -7.17464,0.708607 -5.40312,0 -8.94616,-1.417213 -3.54303,-1.505788 -5.66885,-4.074487 -2.12582,-2.657274 -3.01157,-6.377457 -0.79719,-3.720184 -0.79719,-8.237549 z m 70.59494,7.440367 q -9.65477,0 -13.99498,5.403124 -4.25164,5.314548 -4.25164,14.615006 0,4.517366 1.06291,8.23755 1.06291,3.631607 3.18873,6.288881 2.12582,2.657274 5.31455,4.163063 3.18873,1.417213 7.44036,1.417213 2.30297,0 3.89734,-0.08858 1.68294,-0.08858 2.923,-0.354303 V 65.665944 h 13.81783 v 30.381499 q -2.48013,0.974334 -7.97183,2.037243 -5.4917,1.151486 -13.55209,1.151486 -6.90892,0 -12.57777,-2.125819 -5.58027,-2.12582 -9.56618,-6.200306 -3.98591,-4.074487 -6.20031,-10.009066 -2.12582,-5.934578 -2.12582,-13.552097 0,-7.706094 2.39155,-13.640673 2.39154,-5.934578 6.55461,-10.009065 4.16306,-4.163062 9.74334,-6.288881 5.66885,-2.12582 12.0463,-2.12582 4.34022,0 7.79467,0.620031 3.54304,0.531455 6.02316,1.328637 2.5687,0.708606 4.16306,1.505789 1.68294,0.797182 2.39155,1.240061 l -3.98591,11.071975 q -2.83443,-1.505789 -6.55461,-2.568699 -3.63161,-1.151485 -7.97182,-1.151485 z m 29.14141,27.812801 q 0,-6.200306 1.86009,-10.806248 1.94867,-4.694517 5.04882,-7.79467 3.10015,-3.100153 7.08606,-4.694517 4.07449,-1.594365 8.32613,-1.594365 9.92049,0 15.67791,6.11173 5.75743,6.023155 5.75743,17.803736 0,1.151485 -0.0886,2.568698 -0.0886,1.328637 -0.17715,2.391546 h -29.93862 q 0.44288,4.074487 3.80876,6.466034 3.36588,2.391546 9.03473,2.391546 3.63161,0 7.08607,-0.62003 3.54303,-0.708607 5.75742,-1.68294 l 1.77152,10.717671 q -1.06291,0.531455 -2.83442,1.06291 -1.77152,0.531454 -3.98592,0.885758 -2.12582,0.442879 -4.60594,0.708606 -2.48012,0.265727 -4.96024,0.265727 -6.28888,0 -10.9834,-1.860091 -4.60594,-1.860092 -7.7061,-5.048821 -3.01157,-3.277304 -4.51736,-7.706094 -1.41721,-4.42879 -1.41721,-9.566186 z m 31.00153,-5.048821 q -0.0886,-1.68294 -0.62004,-3.277304 -0.44287,-1.594365 -1.50578,-2.834426 -0.97434,-1.240061 -2.5687,-2.037243 -1.50579,-0.797183 -3.80876,-0.797183 -2.2144,0 -3.80876,0.797183 -1.59436,0.708606 -2.65727,1.948667 -1.06291,1.240061 -1.68294,2.923002 -0.53146,1.594364 -0.79719,3.277304 z m 48.53949,3.277305 q 0,-6.377458 -1.68294,-9.034732 -1.59436,-2.657274 -5.58027,-2.657274 -1.24006,0 -2.5687,0.177152 -1.32864,0.08858 -2.5687,0.265727 V 98.084686 H 296.51905 V 53.088181 q 1.68294,-0.442879 3.89733,-0.885758 2.30297,-0.531455 4.78309,-0.885758 2.5687,-0.442879 5.22598,-0.620031 2.65727,-0.265727 5.22597,-0.265727 5.04882,0 8.14897,1.328637 3.18873,1.240061 5.22597,3.011577 2.83443,-2.037243 6.46604,-3.188729 3.72018,-1.151485 6.82033,-1.151485 5.58028,0 9.12331,1.594364 3.63161,1.505789 5.75743,4.340214 2.12582,2.834426 2.923,6.731761 0.79718,3.897335 0.79718,8.680428 V 98.084686 H 347.71586 V 73.372039 q 0,-6.377458 -1.68294,-9.034732 -1.59437,-2.657274 -5.58028,-2.657274 -1.06291,0 -3.01157,0.531455 -1.8601,0.531455 -3.10016,1.328637 0.62003,2.037243 0.79718,4.340214 0.17716,2.214395 0.17716,4.783093 v 25.421254 h -13.1978 z"
       id="text17"
       aria-label="tGem" /></g><g
     inkscape:label="Layer 1"
     inkscape:groupmode="layer"
     id="layer1"
     style="display:inline"><g
       id="g1"
       transform="translate(4.0850732,0.63380498)"><g
         id="layer2-5"
         inkscape:label="tail"><g
           id="g17"
           transform="matrix(0.60353622,1.0453554,-1.0453554,0.60353622,152.77973,-57.261962)"><g
             id="g18"
             transform="rotate(17.224178,78.76094,15.483848)"
             inkscape:transform-center-x="-14.757175"
             inkscape:transform-center-y="-10.781559"><path
               style="fill:#81e0ff;fill-opacity:1;stroke:#ffffff;stroke-width:3.96875;stroke-linecap:round;stroke-linejoin:round;stroke-dasharray:none;stroke-opacity:1"
               d="m 112.93806,126.05132 c 25.80796,-23.66958 12.1021,-26.205304 0.27058,-54.640104 -2.46028,10.333687 -9.64781,18.177531 -15.441077,26.755734 z"
               id="path13"
               sodipodi:nodetypes="cccc" /><path
               style="fill:none;stroke:#49d2ff;stroke-width:3.96875;stroke-linecap:butt;stroke-linejoin:miter;stroke-dasharray:none;stroke-opacity:1"
               d="M 97.767562,98.166948 H 127.33103"
               id="path14" /><path
               style="fill:none;stroke:#49d2ff;stroke-width:3.46047;stroke-linecap:butt;stroke-linejoin:miter;stroke-dasharray:none;stroke-opacity:1"
               d="m 101.99439,90.529911 21.79288,-0.102438"
               id="path15"
               sodipodi:nodetypes="cc" /><path
               style="fill:none;stroke:#49d2ff;stroke-width:3.46047;stroke-linecap:butt;stroke-linejoin:miter;stroke-dasharray:none;stroke-opacity:1"
               d="m 105.83805,105.95286 h 22.47594"
               id="path16" /><path
               style="fill:none;fill-opacity:1;stroke:#ffffff;stroke-width:3.96875;stroke-linecap:round;stroke-linejoin:round;stroke-dasharray:none;stroke-opacity:1"
               d="m 112.93806,126.05132 c 25.80796,-23.66958 12.1021,-26.205304 0.27058,-54.640104 -2.46028,10.333687 -9.64781,18.177531 -15.441077,26.755734 z"
               id="path17"
               sodipodi:nodetypes="cccc" /></g></g></g><g
         inkscape:label="Layer 1"
         id="layer1-3"
         style="display:inline"><path
           style="fill:#81e0ff;fill-opacity:1;stroke:#ffffff;stroke-width:6.38742;stroke-linecap:butt;stroke-linejoin:round;stroke-dasharray:none;stroke-opacity:1;paint-order:markers fill stroke"
           d="M 8.9516925,45.1529 65.591225,128.46968 122.81822,45.1529 V 15.609139 H 8.3642365 Z"
           id="path1"
           sodipodi:nodetypes="cccccc" /><path
           style="fill:none;stroke:#49d2ff;stroke-width:6.38742;stroke-linecap:round;stroke-linejoin:miter;stroke-dasharray:none;stroke-opacity:1"
           d="M 65.655434,124.89934 V 39.0959"
           id="path2"
           sodipodi:nodetypes="cc" /><path
           style="fill:none;stroke:#49d2ff;stroke-width:6.38742;stroke-linecap:round;stroke-linejoin:miter;stroke-dasharray:none;stroke-opacity:1"
           d="M 92.095831,89.881628 V 37.622146"
           id="path3"
           sodipodi:nodetypes="cc" /><path
           style="fill:none;stroke:#49d2ff;stroke-width:6.38742;stroke-linecap:round;stroke-linejoin:miter;stroke-dasharray:none;stroke-opacity:1"
           d="M 39.215039,89.881628 V 37.622146"
           id="path4"
           sodipodi:nodetypes="cc" /><path
           style="display:inline;fill:#81e0ff;fill-opacity:1;stroke:none;stroke-width:4.79057;stroke-linecap:butt;stroke-linejoin:miter;stroke-dasharray:none;stroke-opacity:1"
           d="m 87.278253,17.295524 c 0,20.803693 28.950117,21.071186 28.950117,0"
           id="path18"
           sodipodi:nodetypes="cc" /><path
           style="display:inline;fill:#81e0ff;fill-opacity:1;stroke:none;stroke-width:4.79057;stroke-linecap:butt;stroke-linejoin:miter;stroke-dasharray:none;stroke-opacity:1"
           d="m 14.525907,17.295524 c 0,20.803693 28.950119,21.071186 28.950119,0"
           id="path19"
           sodipodi:nodetypes="cc" /><path
           style="display:inline;fill:none;stroke:#49d2ff;stroke-width:6.38742;stroke-linecap:round;stroke-linejoin:miter;stroke-dasharray:none;stroke-opacity:1"
           d="M 118.55342,19.528046 92.078419,35.587921 64.673225,39.226301 38.995355,35.896322 11.968101,19.585622"
           id="path7"
           sodipodi:nodetypes="ccccc"
           inkscape:label="diamondBorder" /><path
           style="fill:none;stroke:#49d2ff;stroke-width:6.38742;stroke-linecap:round;stroke-linejoin:miter;stroke-dasharray:none;stroke-opacity:1"
           d="M 113.97614,54.71107 89.77507,70.924432 64.723688,74.597585 41.25127,71.235781 16.545367,54.769196"
           id="path8"
           sodipodi:nodetypes="ccccc" /><ellipse
           style="fill:#ffffff;fill-opacity:1;stroke:none;stroke-width:5.33345;stroke-linecap:round;stroke-linejoin:round;stroke-dasharray:none;stroke-opacity:1;paint-order:markers fill stroke"
           id="path6"
           cx="47.33326"
           cy="53.676582"
           rx="5.605247"
           ry="12.041558" /><ellipse
           style="fill:#ffffff;fill-opacity:1;stroke:none;stroke-width:5.33345;stroke-linecap:round;stroke-linejoin:round;stroke-dasharray:none;stroke-opacity:1;paint-order:markers fill stroke"
           id="ellipse6"
           cx="83.977608"
           cy="53.676582"
           rx="5.605247"
           ry="12.041558" /><path
           style="fill:none;stroke:#49d2ff;stroke-width:6.38742;stroke-linecap:round;stroke-linejoin:miter;stroke-dasharray:none;stroke-opacity:1"
           d="M 96.165516,81.703269 80.812494,98.615796 64.920042,102.44735 50.029277,98.94057 34.355994,81.763901"
           id="path9"
           sodipodi:nodetypes="ccccc" /><path
           style="display:inline;fill:none;fill-opacity:1;stroke:#ffffff;stroke-width:6.38742;stroke-linecap:butt;stroke-linejoin:round;stroke-dasharray:none;stroke-opacity:1;paint-order:markers fill stroke"
           d="M 8.9516925,45.1529 65.591225,128.46968 122.81822,45.1529 V 15.609139 H 8.3642365 Z"
           id="path5"
           sodipodi:nodetypes="cccccc"
           inkscape:label="overlay" /><g
           id="g20"
           transform="matrix(1.2070724,0,0,1.2070724,-12.26901,-8.8097337)"><path
             style="fill:#81e0ff;fill-opacity:1;stroke:#ffffff;stroke-width:3.96875;stroke-linecap:butt;stroke-linejoin:miter;stroke-dasharray:none;stroke-opacity:1"
             d="m 22.198263,22.910348 c 0,-17.2348338 23.983758,-17.4564393 23.983758,0"
             id="path10"
             sodipodi:nodetypes="cc" /><circle
             style="fill:#49d2ff;fill-opacity:1;stroke:none;stroke-width:4.66341;stroke-linecap:round;stroke-linejoin:round;stroke-dasharray:none;stroke-opacity:1;paint-order:markers fill stroke"
             id="path12"
             cx="35.640106"
             cy="21.912252"
             r="4.5943856" /></g><g
           id="g19"
           transform="matrix(1.2070724,0,0,1.2070724,-13.927877,-8.8059994)"><path
             style="fill:#81e0ff;fill-opacity:1;stroke:#ffffff;stroke-width:3.96875;stroke-linecap:butt;stroke-linejoin:miter;stroke-dasharray:none;stroke-opacity:1"
             d="m 83.84429,22.910348 c 0,-17.2348338 23.98375,-17.4564393 23.98375,0"
             id="path11"
             sodipodi:nodetypes="cc" /><circle
             style="fill:#49d2ff;fill-opacity:1;stroke:none;stroke-width:4.66341;stroke-linecap:round;stroke-linejoin:round;stroke-dasharray:none;stroke-opacity:1;paint-order:markers fill stroke"
             id="circle12"
             cx="94.824921"
             cy="21.912252"
             r="4.5943856" /></g></g></g></g></svg>
