<?xml version="1.0" encoding="UTF-8" standalone="no"?>
<!-- Created with Inkscape (http://www.inkscape.org/) -->

<svg
   width="1000"
   height="1000"
   viewBox="0 0 264.58333 264.58333"
   version="1.1"
   id="svg5"
   xml:space="preserve"
   sodipodi:docname="controller.svg"
   inkscape:version="1.2.2 (732a01da63, 2022-12-09)"
   xmlns:inkscape="http://www.inkscape.org/namespaces/inkscape"
   xmlns:sodipodi="http://sodipodi.sourceforge.net/DTD/sodipodi-0.dtd"
   xmlns:xlink="http://www.w3.org/1999/xlink"
   xmlns="http://www.w3.org/2000/svg"
   xmlns:svg="http://www.w3.org/2000/svg"><sodipodi:namedview
     id="namedview7"
     pagecolor="#ffffff"
     bordercolor="#000000"
     borderopacity="0.25"
     inkscape:showpageshadow="2"
     inkscape:pageopacity="0.0"
     inkscape:pagecheckerboard="0"
     inkscape:deskcolor="#d1d1d1"
     inkscape:document-units="mm"
     showgrid="false"
     inkscape:zoom="1.2623761"
     inkscape:cx="527.18047"
     inkscape:cy="212.29807"
     inkscape:window-width="2560"
     inkscape:window-height="1369"
     inkscape:window-x="1912"
     inkscape:window-y="-8"
     inkscape:window-maximized="1"
     inkscape:current-layer="layer1" /><defs
     id="defs2"><linearGradient
       inkscape:collect="always"
       id="linearGradient21413"><stop
         style="stop-color:#ffffff;stop-opacity:1;"
         offset="0"
         id="stop21409" /><stop
         style="stop-color:#b2b2b2;stop-opacity:1;"
         offset="1"
         id="stop21411" /></linearGradient><radialGradient
       inkscape:collect="always"
       xlink:href="#linearGradient21413"
       id="radialGradient21417"
       cx="143.66747"
       cy="117.24787"
       fx="143.66747"
       fy="117.24787"
       r="98.863373"
       gradientTransform="matrix(1.3630404,0,0,0.9187984,-63.53361,31.808207)"
       gradientUnits="userSpaceOnUse" /></defs><g
     inkscape:label="Layer 1"
     inkscape:groupmode="layer"
     id="layer1"><path
       style="fill:url(#radialGradient21417);fill-opacity:1;stroke:#848484;stroke-width:3.51691;stroke-linecap:round;stroke-dasharray:none;stroke-opacity:1;paint-order:markers fill stroke"
       d="m 36.325241,229.4067 c 8.099476,-11.29766 26.001211,-31.52935 42.067727,-45.68945 H 194.28818 c 15.00476,11.02919 27.34927,32.20206 39.37831,45.68945 13.80743,-5.94651 27.76691,-19.61342 29.15538,-43.99633 -2.38078,-39.6351 -9.92868,-78.62433 -26.98843,-116.42457 l -14.47919,-9.948291 c -5.04726,-2.914033 -17.5495,-9.609484 -30.23887,-9.455804 L 163.63445,80.411561 H 107.29362 L 78.630741,51.157673 c -17.580978,0 -23.556205,1.387155 -42.649619,12.410742 l -9.5543,9.554297 C 17.667178,109.38741 0.78853429,140.86268 1.8023393,182.25843 c 2.2509544,12.56027 1.8185921,24.59935 8.9140627,35.7055 2.988349,5.17596 14.314791,12.38952 25.608839,11.44277 z"
       id="path410"
       sodipodi:nodetypes="cccccccccccccccc" /><path
       style="fill:#2f2f2f;fill-opacity:1;stroke:none;stroke-width:1.75846;stroke-linecap:round;stroke-dasharray:none;stroke-opacity:1;paint-order:markers fill stroke"
       d="m 35.350161,63.643134 5.502236,-9.890097 c 10.724882,-8.26696 25.061179,-10.634406 39.28179,-11.909904 l 15.531632,7.313099 -7.382754,12.049202 -9.611504,-9.472206 c -19.300745,-2.171033 -31.755068,4.895583 -43.3214,11.909906 z"
       id="path1440"
       sodipodi:nodetypes="ccccccc" /><path
       style="fill:#2f2f2f;fill-opacity:1;stroke:none;stroke-width:1.75846;stroke-linecap:round;stroke-dasharray:none;stroke-opacity:1;paint-order:markers fill stroke"
       d="m 230.32389,64.184872 -4.7635,-10.431835 C 214.8355,45.486077 200.49921,43.118631 186.2786,41.843133 l -15.53163,7.313099 8.21999,12.64019 12.14842,-12.214717 c 18.72764,-0.425473 27.64218,7.588844 39.20851,14.603167 z"
       id="path1442"
       sodipodi:nodetypes="ccccccc" /><path
       style="fill:#000000;fill-opacity:1;stroke:#222222;stroke-width:1.75846;stroke-linecap:round;stroke-dasharray:none;stroke-opacity:1;paint-order:markers fill stroke"
       d="m 95.665819,49.156232 75.081151,0 8.21999,12.64019 -16.76575,16.564686 -53.72196,0.148203 -20.196185,-17.303877 z"
       id="path1498"
       sodipodi:nodetypes="ccccccc" /><path
       sodipodi:type="spiral"
       style="fill:none;fill-rule:evenodd;stroke:#11aee6;stroke-width:3.96875;stroke-dasharray:none;stroke-opacity:1"
       id="path1553"
       sodipodi:cx="144.67111"
       sodipodi:cy="61.9491"
       sodipodi:expansion="1"
       sodipodi:revolution="2"
       sodipodi:radius="12.916521"
       sodipodi:argument="-17.802359"
       sodipodi:t0="0"
       d="m 144.67111,61.9491 c 0.48571,0.841275 -0.89439,1.069784 -1.39825,0.807283 -1.36544,-0.71136 -1.10056,-2.633491 -0.21631,-3.603791 1.5817,-1.735639 4.35038,-1.246754 5.80932,0.37466 2.14107,2.37949 1.40403,6.093002 -0.96563,8.014865 -3.15838,2.561542 -7.84507,1.566426 -10.2204,-1.556602 -2.98911,-3.930011 -1.73155,-9.601726 2.14757,-12.42594 4.69815,-3.420501 11.36098,-1.898282 14.63148,2.738545 3.85417,5.46434 2.06602,13.121849 -3.32951,16.837014"
       transform="matrix(1.1247576,0,0,1.1247576,-28.767492,-3.5875382)" /><circle
       style="fill:#2f2f2f;fill-opacity:1;stroke:#3b3b3b;stroke-width:5.27536;stroke-linecap:round;stroke-dasharray:none;stroke-opacity:1;paint-order:markers fill stroke"
       id="path1607"
       cx="58.931149"
       cy="96.959221"
       r="14.577695" /><circle
       style="fill:#2f2f2f;fill-opacity:1;stroke:#3b3b3b;stroke-width:5.27536;stroke-linecap:round;stroke-dasharray:none;stroke-opacity:1;paint-order:markers fill stroke"
       id="circle1609"
       cx="178.96696"
       cy="146.9718"
       r="14.577695" /><g
       id="g4795"
       transform="matrix(1.3292248,0,0,1.3292248,-58.675396,2.6309922)"><circle
         style="fill:#000000;fill-opacity:1;stroke:none;stroke-width:4.74521;stroke-linecap:round;stroke-dasharray:none;stroke-opacity:1;paint-order:markers fill stroke"
         id="path1663"
         cx="202.15103"
         cy="86.6661"
         r="7.1420016" /><g
         aria-label="A"
         id="text1773"
         style="font-weight:bold;font-size:11.2889px;font-family:'UD Digi Kyokasho NP-B';-inkscape-font-specification:'UD Digi Kyokasho NP-B Bold';fill:#aecc53;stroke-width:3.96875;stroke-linecap:round;paint-order:markers fill stroke"><path
           d="m 206.69581,90.979362 h -2.18833 l -0.56775,-1.659159 h -3.04271 l -0.56776,1.659159 h -2.1332 l 3.03169,-8.207603 h 2.43637 z m -3.26871,-3.163978 -1.00873,-2.943493 -1.00872,2.943493 z"
           id="path337" /></g></g><g
       id="g4803"
       transform="matrix(1.3292248,0,0,1.3292248,-63.163597,-16.355658)"><circle
         style="fill:#000000;fill-opacity:1;stroke:none;stroke-width:4.74521;stroke-linecap:round;stroke-dasharray:none;stroke-opacity:1;paint-order:markers fill stroke"
         id="circle4797"
         cx="218.87067"
         cy="86.666092"
         r="7.1420016" /><g
         aria-label="B"
         id="text4801"
         style="font-weight:bold;font-size:11.2889px;font-family:'UD Digi Kyokasho NP-B';-inkscape-font-specification:'UD Digi Kyokasho NP-B Bold';fill:#dc6543;stroke-width:3.96875;stroke-linecap:round;paint-order:markers fill stroke"><path
           d="m 222.8532,88.465811 q 0,0.595313 -0.24253,1.063846 -0.23703,0.468534 -0.65595,0.777215 -0.48507,0.363802 -1.06936,0.518142 -0.57878,0.154341 -1.47175,0.154341 h -3.5829 v -8.207604 h 3.18603 q 0.99219,0 1.4497,0.06615 0.46302,0.06615 0.91502,0.292144 0.46853,0.237023 0.69453,0.639411 0.23151,0.396875 0.23151,0.909506 0,0.595313 -0.3142,1.052822 -0.31419,0.451997 -0.88745,0.705556 v 0.0441 q 0.80477,0.159852 1.27331,0.661459 0.47404,0.501606 0.47404,1.322918 z m -2.71198,-3.373441 q 0,-0.20395 -0.10473,-0.4079 -0.0992,-0.20395 -0.35829,-0.303169 -0.23151,-0.08819 -0.57878,-0.09371 -0.34175,-0.01102 -0.96463,-0.01102 h -0.19843 v 1.73633 h 0.33073 q 0.5016,0 0.85438,-0.01654 0.35278,-0.01654 0.55673,-0.110243 0.28663,-0.12678 0.37482,-0.325218 0.0882,-0.20395 0.0882,-0.468533 z m 0.51814,3.340368 q 0,-0.391364 -0.15434,-0.600826 -0.14883,-0.214974 -0.51263,-0.319705 -0.24805,-0.07166 -0.68351,-0.07717 -0.43546,-0.0055 -0.9095,-0.0055 h -0.46302 v 2.045011 h 0.15434 q 0.89297,0 1.27882,-0.0055 0.38585,-0.0055 0.71107,-0.143316 0.33073,-0.137804 0.45199,-0.363802 0.12678,-0.231511 0.12678,-0.529167 z"
           id="path334" /></g></g><g
       id="g12917"
       transform="matrix(1.3292248,0,0,1.3292248,-99.886198,-16.355658)"><circle
         style="fill:#000000;fill-opacity:1;stroke:none;stroke-width:4.74521;stroke-linecap:round;stroke-dasharray:none;stroke-opacity:1;paint-order:markers fill stroke"
         id="circle12911"
         cx="218.87067"
         cy="86.666092"
         r="7.1420016" /><g
         aria-label="X"
         id="text12915"
         style="font-weight:bold;font-size:11.2889px;font-family:'UD Digi Kyokasho NP-B';-inkscape-font-specification:'UD Digi Kyokasho NP-B Bold';fill:#5ebbbf;stroke-width:3.96875;stroke-linecap:round;paint-order:markers fill stroke"><path
           d="m 223.27213,90.979355 h -2.4474 l -1.76941,-2.700958 -1.80247,2.700958 h -2.33716 l 2.91042,-4.134119 -2.84978,-4.073485 h 2.44188 l 1.70877,2.557642 1.75838,-2.557642 h 2.34267 l -2.86632,3.990803 z"
           id="path340" /></g></g><g
       id="g14683"
       transform="matrix(1.3292248,0,0,1.3292248,-81.085284,-35.342308)"><circle
         style="fill:#000000;fill-opacity:1;stroke:none;stroke-width:4.74521;stroke-linecap:round;stroke-dasharray:none;stroke-opacity:1;paint-order:markers fill stroke"
         id="circle14677"
         cx="218.87067"
         cy="86.666092"
         r="7.1420016" /><g
         aria-label="Y"
         id="text14681"
         style="font-weight:bold;font-size:11.2889px;font-family:'UD Digi Kyokasho NP-B';-inkscape-font-specification:'UD Digi Kyokasho NP-B Bold';fill:#e5c03a;stroke-width:3.96875;stroke-linecap:round;paint-order:markers fill stroke"><path
           d="m 223.05164,82.771751 -3.02618,5.032601 v 3.175003 H 217.9088 V 87.90357 l -3.07579,-5.131819 h 2.4033 l 1.77492,3.175003 1.71428,-3.175003 z"
           id="path343" /></g></g><g
       id="g17056"
       transform="matrix(0.96840195,0,0,0.96840195,-55.058283,14.915441)"><circle
         style="fill:#000000;fill-opacity:1;stroke:none;stroke-width:4.74521;stroke-linecap:round;stroke-dasharray:none;stroke-opacity:1;paint-order:markers fill stroke"
         id="circle17050"
         cx="218.87067"
         cy="86.666092"
         r="7.1420016" /><g
         aria-label="+"
         id="text17054"
         style="font-weight:bold;font-size:11.2889px;font-family:'UD Digi Kyokasho NP-B';-inkscape-font-specification:'UD Digi Kyokasho NP-B Bold';fill:#e5c03a;stroke:#ffffff;stroke-width:1.0895;stroke-linecap:round;paint-order:markers fill stroke"><path
           d="m 222.56382,87.40472 h -2.93798 v 2.91042 h -1.51033 v -2.91042 h -2.93798 v -1.477258 h 2.93798 v -2.91042 h 1.51033 v 2.91042 h 2.93798 z"
           style="fill:#ffffff"
           id="path393" /></g></g><g
       id="g17166"
       transform="matrix(0.96840195,0,0,0.96840195,-97.510895,14.915441)"><circle
         style="fill:#000000;fill-opacity:1;stroke:none;stroke-width:4.74521;stroke-linecap:round;stroke-dasharray:none;stroke-opacity:1;paint-order:markers fill stroke"
         id="circle17160"
         cx="218.87067"
         cy="86.666092"
         r="7.1420016" /><g
         aria-label="-"
         id="text17164"
         style="font-weight:bold;font-size:11.2889px;font-family:'UD Digi Kyokasho NP-B';-inkscape-font-specification:'UD Digi Kyokasho NP-B Bold';fill:#e5c03a;stroke:#ffffff;stroke-width:1.0895;stroke-linecap:round;paint-order:markers fill stroke"><path
           d="m 220.97355,87.459842 h -4.20577 V 85.87234 h 4.20577 z"
           style="fill:#ffffff"
           id="path396" /></g></g><rect
       style="fill:#000000;fill-opacity:1;stroke:none;stroke-width:1.00633;stroke-linecap:round;stroke-dasharray:none;stroke-opacity:1;paint-order:markers fill stroke"
       id="rect17322"
       width="15.118921"
       height="23.983744"
       x="90.91861"
       y="124.90825"
       rx="6.472343"
       ry="3.4388337"
       inkscape:transform-center-x="-0.098498866"
       inkscape:transform-center-y="-11.03177" /><rect
       style="fill:#000000;fill-opacity:1;stroke:none;stroke-width:1.00633;stroke-linecap:round;stroke-dasharray:none;stroke-opacity:1;paint-order:markers fill stroke"
       id="rect21380"
       width="15.118921"
       height="23.983744"
       x="140.47093"
       y="-121.40322"
       rx="6.472343"
       ry="3.4388337"
       inkscape:transform-center-x="-11.031778"
       inkscape:transform-center-y="0.098486637"
       transform="rotate(90)" /><rect
       style="fill:#000000;fill-opacity:1;stroke:none;stroke-width:1.00633;stroke-linecap:round;stroke-dasharray:none;stroke-opacity:1;paint-order:markers fill stroke"
       id="rect21382"
       width="15.118921"
       height="23.983744"
       x="-105.84053"
       y="-170.95555"
       rx="6.472343"
       ry="3.4388337"
       inkscape:transform-center-x="0.098501663"
       inkscape:transform-center-y="11.031773"
       transform="scale(-1)" /><rect
       style="fill:#000000;fill-opacity:1;stroke:none;stroke-width:1.00633;stroke-linecap:round;stroke-dasharray:none;stroke-opacity:1;paint-order:markers fill stroke"
       id="rect21384"
       width="15.118921"
       height="23.983744"
       x="-155.39287"
       y="75.355934"
       rx="6.472343"
       ry="3.4388337"
       inkscape:transform-center-x="11.031765"
       inkscape:transform-center-y="-0.098498559"
       transform="rotate(-90)" /><g
       id="g26167"
       transform="translate(9.405808)"><path
         style="fill:#2f2f2f;fill-opacity:1;stroke:none;stroke-width:2.73752;stroke-linecap:round;stroke-dasharray:none;stroke-opacity:1;paint-order:markers fill stroke"
         d="M 68.816881,10.116512 V 33.642215 H 56.76081 C 45.206024,26.716058 45.478557,18.263793 43.387483,10.116512 Z"
         id="path25501"
         sodipodi:nodetypes="ccccc" /><g
         aria-label="TL"
         id="text25902"
         style="font-weight:bold;font-size:11.6103px;font-family:'UD Digi Kyokasho NP-B';-inkscape-font-specification:'UD Digi Kyokasho NP-B Bold';fill:#ffffff;stroke-width:3.45397;stroke-linecap:round;paint-order:markers fill stroke"><path
           d="m 59.108221,17.420156 h -2.636128 v 6.808579 h -2.176931 v -6.808579 h -2.636128 v -1.632699 h 7.449187 z"
           id="path404" /><path
           d="m 66.506385,24.228735 h -6.088604 v -8.441278 h 2.176931 v 6.80858 h 3.911673 z"
           id="path406" /></g></g><g
       id="g26175"
       transform="matrix(-1,0,0,1,256.63761,0)"><path
         style="fill:#2f2f2f;fill-opacity:1;stroke:none;stroke-width:2.73752;stroke-linecap:round;stroke-dasharray:none;stroke-opacity:1;paint-order:markers fill stroke"
         d="M 68.816881,10.116512 V 33.642215 H 56.76081 C 45.206024,26.716058 45.478557,18.263793 43.387483,10.116512 Z"
         id="path26169"
         sodipodi:nodetypes="ccccc" /><g
         aria-label="TR"
         transform="scale(-1,1)"
         id="text26173"
         style="font-weight:bold;font-size:11.6103px;font-family:'UD Digi Kyokasho NP-B';-inkscape-font-specification:'UD Digi Kyokasho NP-B Bold';fill:#ffffff;stroke-width:3.45397;stroke-linecap:round;paint-order:markers fill stroke"><path
           d="m -61.030043,17.420156 h -2.636128 v 6.808579 h -2.176931 v -6.808579 h -2.636128 v -1.632699 h 7.449187 z"
           id="path399" /><path
           d="m -54.986791,18.372563 q 0,-0.317469 -0.130389,-0.544233 -0.130389,-0.226763 -0.447859,-0.357152 -0.221094,-0.09071 -0.515887,-0.107713 -0.294793,-0.02268 -0.68596,-0.02268 h -0.788004 v 2.273306 h 0.668953 q 0.521557,0 0.87304,-0.05102 0.351484,-0.05102 0.589586,-0.232432 0.226763,-0.175742 0.328807,-0.385499 0.107713,-0.215425 0.107713,-0.572578 z m 3.395786,5.856172 h -2.658804 l -2.301652,-3.095324 h -1.003429 v 3.095324 h -2.165593 v -8.441278 h 3.650895 q 0.74832,0 1.286884,0.08504 0.538564,0.08504 1.009098,0.368491 0.476204,0.283454 0.75399,0.736982 0.283454,0.447858 0.283454,1.128149 0,0.9354 -0.43652,1.524985 -0.430851,0.589586 -1.235862,0.980753 z"
           id="path401" /></g></g></g></svg>
